<svg xmlns="http://www.w3.org/2000/svg" xmlns:xlink="http://www.w3.org/1999/xlink" width="1080" zoomAndPan="magnify" viewBox="0 0 810 809.999993" height="1080" preserveAspectRatio="xMidYMid meet" version="1.0"><defs><g/><clipPath id="e93f3d482c"><path d="M 405 0 C 181.324219 0 0 181.324219 0 405 C 0 628.675781 181.324219 810 405 810 C 628.675781 810 810 628.675781 810 405 C 810 181.324219 628.675781 0 405 0 Z M 405 0 " clip-rule="nonzero"/></clipPath><clipPath id="faa9a49633"><path d="M 361 399 L 729 399 L 729 637.875 L 361 637.875 Z M 361 399 " clip-rule="nonzero"/></clipPath></defs><g fill="#d9d9d9" fill-opacity="1"><g transform="translate(273.485205, 694.245776)"><g><path d="M 80.765625 -77.984375 L 80.765625 0 L 62.71875 0 L 62.71875 -31.96875 L 27.296875 -31.96875 L 27.296875 0 L 9.25 0 L 9.25 -77.984375 L 27.296875 -77.984375 L 27.296875 -47.234375 L 62.71875 -47.234375 L 62.71875 -77.984375 Z M 80.765625 -77.984375 "/></g></g></g><g fill="#d9d9d9" fill-opacity="1"><g transform="translate(363.500259, 694.245776)"><g><path d="M 43.890625 1.34375 C 32.753906 1.34375 24.082031 -1.738281 17.875 -7.90625 C 11.675781 -14.070312 8.578125 -22.875 8.578125 -34.3125 L 8.578125 -77.984375 L 26.625 -77.984375 L 26.625 -34.984375 C 26.625 -21.015625 32.414062 -14.03125 44 -14.03125 C 49.644531 -14.03125 53.953125 -15.71875 56.921875 -19.09375 C 59.898438 -22.476562 61.390625 -27.773438 61.390625 -34.984375 L 61.390625 -77.984375 L 79.203125 -77.984375 L 79.203125 -34.3125 C 79.203125 -22.875 76.101562 -14.070312 69.90625 -7.90625 C 63.707031 -1.738281 55.035156 1.34375 43.890625 1.34375 Z M 43.890625 1.34375 "/></g></g></g><g fill="#d9d9d9" fill-opacity="1"><g transform="translate(451.287217, 694.245776)"><g><path d="M 66.515625 -40.546875 C 70.960938 -39.140625 74.445312 -36.78125 76.96875 -33.46875 C 79.5 -30.164062 80.765625 -26.101562 80.765625 -21.28125 C 80.765625 -14.445312 78.109375 -9.191406 72.796875 -5.515625 C 67.492188 -1.835938 59.753906 0 49.578125 0 L 9.25 0 L 9.25 -77.984375 L 47.34375 -77.984375 C 56.851562 -77.984375 64.148438 -76.160156 69.234375 -72.515625 C 74.328125 -68.878906 76.875 -63.941406 76.875 -57.703125 C 76.875 -53.921875 75.960938 -50.539062 74.140625 -47.5625 C 72.316406 -44.59375 69.773438 -42.253906 66.515625 -40.546875 Z M 27.1875 -64.390625 L 27.1875 -46.015625 L 45.125 -46.015625 C 49.570312 -46.015625 52.945312 -46.789062 55.25 -48.34375 C 57.5625 -49.90625 58.71875 -52.207031 58.71875 -55.25 C 58.71875 -58.300781 57.5625 -60.585938 55.25 -62.109375 C 52.945312 -63.628906 49.570312 -64.390625 45.125 -64.390625 Z M 48.234375 -13.59375 C 52.992188 -13.59375 56.578125 -14.367188 58.984375 -15.921875 C 61.398438 -17.484375 62.609375 -19.898438 62.609375 -23.171875 C 62.609375 -29.628906 57.816406 -32.859375 48.234375 -32.859375 L 27.1875 -32.859375 L 27.1875 -13.59375 Z M 48.234375 -13.59375 "/></g></g></g><g clip-path="url(#e93f3d482c)"><rect x="-81" width="972" fill="#020817" y="-80.999999" height="971.999992" fill-opacity="1"/></g><path fill="#dda210" d="M 506.882812 385.316406 C 496.964844 385.316406 487.671875 385.316406 478.382812 385.316406 C 475.796875 385.234375 473.214844 385.328125 470.644531 385.601562 C 468.070312 385.878906 465.53125 386.328125 463.019531 386.957031 C 460.507812 387.585938 458.054688 388.382812 455.65625 389.351562 C 453.257812 390.320312 450.933594 391.449219 448.691406 392.738281 C 446.449219 394.03125 444.308594 395.46875 442.265625 397.058594 C 440.222656 398.648438 438.300781 400.367188 436.496094 402.222656 C 434.691406 404.078125 433.027344 406.050781 431.496094 408.136719 C 429.964844 410.222656 428.585938 412.40625 427.359375 414.683594 L 398.78125 463.1875 C 397.835938 464.839844 396.8125 466.414062 395.472656 468.460938 C 389.09375 468.460938 382.480469 468.460938 375.867188 468.460938 C 372.082031 468.539062 368.378906 469.140625 364.765625 470.273438 C 363.503906 470.726562 362.28125 471.273438 361.097656 471.90625 C 359.917969 472.542969 358.789062 473.261719 357.710938 474.0625 C 356.636719 474.863281 355.625 475.738281 354.675781 476.6875 C 353.730469 477.640625 352.855469 478.652344 352.058594 479.734375 C 351.261719 480.8125 350.546875 481.941406 349.917969 483.128906 C 349.285156 484.3125 348.746094 485.535156 348.292969 486.800781 C 347.84375 488.0625 347.488281 489.351562 347.226562 490.667969 C 346.964844 491.984375 346.804688 493.3125 346.738281 494.652344 C 346.675781 495.996094 346.707031 497.332031 346.839844 498.667969 C 346.972656 500.003906 347.203125 501.320312 347.527344 502.621094 C 347.855469 503.921875 348.273438 505.195312 348.789062 506.433594 C 349.300781 507.671875 349.902344 508.867188 350.59375 510.019531 C 351.28125 511.171875 352.050781 512.265625 352.902344 513.300781 C 353.753906 514.339844 354.675781 515.308594 355.671875 516.210938 C 356.664062 517.113281 357.71875 517.9375 358.832031 518.683594 C 359.949219 519.429688 361.113281 520.089844 362.324219 520.664062 C 364.765625 521.921875 367.441406 522.867188 370.199219 524.050781 L 370.199219 599.636719 C 368.308594 599.636719 366.65625 599.636719 365 599.636719 C 288.785156 599.636719 212.488281 599.636719 136.667969 599.636719 C 134.09375 599.714844 131.53125 599.605469 128.976562 599.3125 C 126.421875 599.019531 123.898438 598.539062 121.414062 597.878906 C 118.929688 597.21875 116.503906 596.378906 114.140625 595.363281 C 111.773438 594.351562 109.496094 593.167969 107.304688 591.824219 C 105.113281 590.476562 103.03125 588.976562 101.058594 587.328125 C 99.082031 585.679688 97.238281 583.894531 95.523438 581.976562 C 93.8125 580.058594 92.246094 578.023438 90.828125 575.878906 C 89.410156 573.730469 88.15625 571.496094 87.0625 569.164062 C 85.324219 565.878906 84.011719 562.429688 83.117188 558.820312 C 82.226562 555.210938 81.78125 551.546875 81.789062 547.828125 C 81.789062 545.9375 81.789062 544.046875 81.789062 542.160156 C 81.789062 438.382812 81.789062 334.636719 81.789062 230.914062 C 81.570312 226.066406 81.960938 221.269531 82.960938 216.523438 C 83.960938 211.777344 85.539062 207.230469 87.691406 202.882812 C 88.773438 200.6875 90 198.574219 91.371094 196.550781 C 92.746094 194.523438 94.253906 192.601562 95.894531 190.785156 C 97.535156 188.972656 99.296875 187.277344 101.171875 185.707031 C 103.050781 184.136719 105.027344 182.703125 107.105469 181.410156 C 109.183594 180.113281 111.339844 178.96875 113.578125 177.976562 C 115.8125 176.980469 118.109375 176.148438 120.460938 175.472656 C 122.816406 174.800781 125.203125 174.292969 127.625 173.949219 C 130.050781 173.609375 132.488281 173.4375 134.933594 173.4375 C 147.21875 172.964844 159.578125 173.4375 171.863281 173.4375 L 451.769531 173.4375 C 455.046875 173.355469 458.308594 173.574219 461.546875 174.085938 C 464.789062 174.601562 467.953125 175.402344 471.046875 176.492188 C 474.144531 177.582031 477.113281 178.941406 479.960938 180.570312 C 482.804688 182.203125 485.480469 184.074219 487.988281 186.191406 C 489.46875 187.363281 490.875 188.617188 492.214844 189.945312 C 493.550781 191.277344 494.808594 192.679688 495.992188 194.152344 C 497.171875 195.625 498.265625 197.160156 499.273438 198.753906 C 500.28125 200.351562 501.195312 202 502.015625 203.695312 C 502.839844 205.394531 503.5625 207.136719 504.191406 208.914062 C 504.816406 210.695312 505.339844 212.503906 505.761719 214.34375 C 506.1875 216.183594 506.503906 218.042969 506.71875 219.917969 C 506.933594 221.792969 507.039062 223.671875 507.042969 225.558594 C 507.042969 277.761719 507.042969 329.886719 507.042969 382.007812 C 507.199219 382.480469 507.042969 383.425781 506.882812 385.316406 Z M 254.0625 416.808594 L 260.359375 416.808594 C 270.992188 416.808594 281.621094 416.808594 292.25 416.808594 C 303.8125 416.691406 315.28125 415.585938 326.65625 413.503906 C 329.65625 413 332.609375 412.292969 335.511719 411.386719 C 338.414062 410.476562 341.238281 409.371094 343.988281 408.070312 C 346.738281 406.769531 349.386719 405.289062 351.933594 403.625 C 354.480469 401.957031 356.898438 400.125 359.191406 398.128906 C 361.484375 396.128906 363.628906 393.980469 365.625 391.6875 C 367.621094 389.390625 369.453125 386.972656 371.113281 384.425781 C 372.777344 381.875 374.257812 379.226562 375.554688 376.476562 C 376.851562 373.726562 377.953125 370.898438 378.859375 367.992188 C 380.851562 361.632812 382.121094 355.132812 382.664062 348.488281 C 383.207031 341.847656 383.015625 335.226562 382.085938 328.625 C 381.933594 326.855469 381.703125 325.09375 381.40625 323.339844 C 381.105469 321.589844 380.738281 319.851562 380.296875 318.128906 C 379.859375 316.40625 379.351562 314.707031 378.773438 313.023438 C 378.195312 311.34375 377.550781 309.6875 376.839844 308.058594 C 376.128906 306.429688 375.351562 304.832031 374.511719 303.265625 C 373.671875 301.699219 372.769531 300.171875 371.804688 298.679688 C 370.839844 297.183594 369.816406 295.734375 368.734375 294.324219 C 367.652344 292.914062 366.511719 291.550781 365.320312 290.230469 C 364.128906 288.914062 362.882812 287.644531 361.589844 286.429688 C 360.292969 285.210938 358.949219 284.050781 357.5625 282.941406 C 356.171875 281.832031 354.738281 280.78125 353.265625 279.789062 C 351.789062 278.796875 350.277344 277.867188 348.726562 276.996094 C 347.175781 276.125 345.59375 275.320312 343.976562 274.578125 C 342.363281 273.839844 340.71875 273.164062 339.050781 272.554688 C 337.378906 271.945312 335.6875 271.40625 333.972656 270.933594 C 332.257812 270.464844 330.53125 270.0625 328.78125 269.730469 C 313.980469 267.207031 299.074219 266.105469 284.0625 266.425781 C 259.257812 266.425781 234.378906 267.132812 209.578125 267.527344 C 208.316406 267.527344 207.058594 267.527344 205.875 267.921875 C 204.929688 275.398438 205.246094 501.765625 205.875 505.941406 C 221.84375 506.9375 237.800781 506.78125 253.746094 505.46875 Z M 254.0625 416.808594 " fill-opacity="1" fill-rule="nonzero"/><g clip-path="url(#faa9a49633)"><path fill="#dda210" d="M 403.660156 482.710938 C 407.203125 476.570312 410.667969 470.746094 414.132812 464.917969 C 423.109375 449.722656 432.007812 434.527344 441.0625 419.328125 C 441.960938 417.816406 442.957031 416.363281 444.046875 414.980469 C 445.136719 413.59375 446.3125 412.289062 447.578125 411.058594 C 448.839844 409.828125 450.175781 408.6875 451.589844 407.632812 C 453 406.578125 454.476562 405.621094 456.015625 404.761719 C 457.554688 403.898438 459.140625 403.144531 460.777344 402.492188 C 462.417969 401.839844 464.089844 401.300781 465.796875 400.867188 C 467.507812 400.4375 469.238281 400.117188 470.988281 399.914062 C 472.738281 399.707031 474.492188 399.621094 476.257812 399.644531 C 521.921875 399.644531 567.667969 399.644531 613.335938 399.644531 C 615.121094 399.605469 616.898438 399.6875 618.667969 399.890625 C 620.441406 400.09375 622.191406 400.414062 623.917969 400.855469 C 625.644531 401.296875 627.335938 401.851562 628.988281 402.519531 C 630.640625 403.191406 632.242188 403.96875 633.789062 404.855469 C 635.335938 405.742188 636.816406 406.730469 638.226562 407.820312 C 639.640625 408.910156 640.972656 410.085938 642.226562 411.355469 C 643.476562 412.625 644.636719 413.976562 645.707031 415.402344 C 646.777344 416.828125 647.742188 418.324219 648.609375 419.882812 C 659.398438 437.910156 669.949219 456.101562 680.65625 474.289062 L 685.539062 482.160156 L 716.007812 482.160156 C 716.617188 482.160156 717.222656 482.210938 717.824219 482.300781 C 718.421875 482.394531 719.015625 482.535156 719.59375 482.71875 C 720.171875 482.902344 720.734375 483.128906 721.28125 483.398438 C 721.824219 483.667969 722.347656 483.980469 722.84375 484.332031 C 723.339844 484.679688 723.808594 485.066406 724.246094 485.488281 C 724.683594 485.910156 725.089844 486.363281 725.457031 486.847656 C 725.824219 487.332031 726.15625 487.839844 726.445312 488.375 C 726.734375 488.910156 726.984375 489.460938 727.1875 490.035156 C 727.714844 491.117188 728.070312 492.253906 728.253906 493.445312 C 728.441406 494.632812 728.449219 495.824219 728.28125 497.015625 C 728.113281 498.207031 727.777344 499.347656 727.269531 500.441406 C 726.757812 501.53125 726.101562 502.523438 725.300781 503.421875 C 723.328125 505.511719 721.019531 507.113281 718.371094 508.222656 C 713.804688 510.347656 709 512.082031 704.277344 514.050781 L 704.277344 523.339844 C 704.277344 549.902344 704.277344 576.460938 704.277344 603.023438 C 704.277344 610.894531 703.648438 611.445312 695.929688 614.28125 C 695.929688 618.769531 695.929688 623.492188 695.929688 628.21875 C 695.929688 635.066406 693.726562 637.273438 686.71875 637.273438 C 676.796875 637.273438 666.957031 637.273438 657.113281 637.273438 C 649.238281 637.273438 647.507812 635.144531 647.507812 627.351562 C 647.507812 623.019531 647.507812 618.613281 647.507812 614.675781 L 646.800781 613.886719 C 646.800781 613.886719 646.800781 613.886719 646.328125 613.886719 L 444.761719 613.652344 C 443.871094 613.601562 442.976562 613.601562 442.085938 613.652344 C 442.085938 615.933594 442.085938 618.140625 442.085938 620.34375 C 442.085938 623.808594 442.085938 627.195312 442.085938 630.578125 C 442.082031 631.039062 442.03125 631.492188 441.933594 631.941406 C 441.835938 632.386719 441.691406 632.820312 441.503906 633.238281 C 441.316406 633.660156 441.085938 634.054688 440.816406 634.425781 C 440.546875 634.796875 440.242188 635.132812 439.902344 635.441406 C 439.5625 635.75 439.191406 636.019531 438.796875 636.25 C 438.398438 636.480469 437.984375 636.667969 437.546875 636.808594 C 437.113281 636.953125 436.664062 637.050781 436.210938 637.101562 C 435.753906 637.15625 435.296875 637.160156 434.839844 637.113281 C 423.660156 637.113281 412.480469 637.113281 401.300781 637.113281 C 401.039062 637.152344 400.777344 637.171875 400.511719 637.179688 C 400.25 637.183594 399.984375 637.171875 399.722656 637.148438 C 399.460938 637.121094 399.199219 637.078125 398.941406 637.019531 C 398.683594 636.964844 398.433594 636.890625 398.183594 636.804688 C 397.933594 636.714844 397.691406 636.613281 397.453125 636.496094 C 397.21875 636.382812 396.988281 636.25 396.769531 636.105469 C 396.546875 635.964844 396.335938 635.808594 396.132812 635.636719 C 395.929688 635.46875 395.738281 635.289062 395.558594 635.09375 C 395.378906 634.902344 395.210938 634.699219 395.054688 634.488281 C 394.898438 634.277344 394.753906 634.054688 394.625 633.824219 C 394.492188 633.597656 394.378906 633.359375 394.277344 633.117188 C 394.175781 632.871094 394.085938 632.625 394.015625 632.371094 C 393.941406 632.117188 393.886719 631.859375 393.84375 631.597656 C 393.804688 631.339844 393.777344 631.078125 393.769531 630.8125 C 393.757812 630.550781 393.765625 630.285156 393.785156 630.023438 C 393.808594 629.761719 393.84375 629.5 393.898438 629.242188 C 393.898438 624.125 393.898438 619.003906 393.898438 613.492188 L 390.75 612.390625 C 389.917969 612.132812 389.152344 611.746094 388.453125 611.230469 C 387.75 610.71875 387.152344 610.105469 386.652344 609.394531 C 386.152344 608.679688 385.785156 607.90625 385.539062 607.074219 C 385.296875 606.238281 385.199219 605.386719 385.238281 604.519531 C 385.238281 603.414062 385.238281 602.234375 385.238281 601.132812 C 385.238281 575.308594 385.238281 549.480469 385.238281 523.734375 C 385.238281 520.507812 385.238281 517.355469 385.867188 513.5 L 373.664062 508.300781 C 371.929688 507.515625 370.121094 506.964844 368.464844 506.019531 C 367.835938 505.683594 367.242188 505.300781 366.675781 504.867188 C 366.113281 504.429688 365.585938 503.953125 365.105469 503.429688 C 364.621094 502.90625 364.183594 502.347656 363.792969 501.75 C 363.40625 501.152344 363.066406 500.53125 362.785156 499.875 C 362.5 499.222656 362.273438 498.550781 362.101562 497.859375 C 361.929688 497.167969 361.820312 496.464844 361.765625 495.757812 C 361.714844 495.046875 361.722656 494.335938 361.789062 493.625 C 361.855469 492.917969 361.984375 492.21875 362.167969 491.53125 C 362.3125 490.859375 362.511719 490.203125 362.769531 489.5625 C 363.023438 488.925781 363.332031 488.3125 363.691406 487.722656 C 364.050781 487.136719 364.457031 486.582031 364.90625 486.0625 C 365.359375 485.542969 365.851562 485.066406 366.382812 484.628906 C 366.917969 484.195312 367.480469 483.804688 368.078125 483.464844 C 368.675781 483.121094 369.300781 482.832031 369.945312 482.59375 C 370.589844 482.359375 371.253906 482.175781 371.929688 482.050781 C 372.605469 481.925781 373.289062 481.859375 373.976562 481.847656 C 381.851562 481.847656 390.277344 481.847656 398.464844 481.847656 Z M 544.363281 497.277344 L 655.382812 497.277344 C 658.035156 497.359375 660.660156 497.125 663.253906 496.570312 C 663.761719 496.4375 664.25 496.253906 664.714844 496.015625 C 665.183594 495.777344 665.617188 495.492188 666.023438 495.160156 C 666.429688 494.828125 666.792969 494.453125 667.117188 494.042969 C 667.441406 493.632812 667.71875 493.191406 667.945312 492.71875 C 668.171875 492.246094 668.347656 491.753906 668.46875 491.246094 C 668.59375 490.738281 668.65625 490.21875 668.667969 489.695312 C 668.675781 489.171875 668.632812 488.652344 668.527344 488.140625 C 668.425781 487.625 668.269531 487.128906 668.058594 486.648438 C 667.367188 485.085938 666.554688 483.589844 665.617188 482.160156 C 655.304688 464.445312 644.910156 446.808594 634.59375 429.171875 C 634.042969 428.144531 633.421875 427.164062 632.730469 426.222656 C 632.042969 425.28125 631.289062 424.394531 630.476562 423.558594 C 629.664062 422.722656 628.796875 421.949219 627.878906 421.234375 C 626.957031 420.519531 625.992188 419.871094 624.980469 419.289062 C 623.96875 418.707031 622.925781 418.199219 621.84375 417.761719 C 620.761719 417.324219 619.65625 416.964844 618.527344 416.683594 C 617.394531 416.402344 616.25 416.199219 615.089844 416.074219 C 613.929688 415.949219 612.769531 415.90625 611.605469 415.945312 L 477.753906 415.945312 C 476.554688 415.882812 475.359375 415.90625 474.167969 416.015625 C 472.972656 416.121094 471.792969 416.316406 470.625 416.59375 C 469.460938 416.867188 468.320312 417.226562 467.203125 417.667969 C 466.089844 418.105469 465.011719 418.625 463.96875 419.214844 C 462.929688 419.808594 461.933594 420.476562 460.988281 421.210938 C 460.042969 421.945312 459.152344 422.746094 458.320312 423.605469 C 457.488281 424.46875 456.71875 425.386719 456.019531 426.359375 C 455.316406 427.328125 454.6875 428.347656 454.132812 429.410156 C 443.660156 447.4375 432.953125 465.3125 422.636719 483.265625 C 422 484.230469 421.476562 485.253906 421.0625 486.335938 C 420.832031 486.828125 420.65625 487.339844 420.539062 487.875 C 420.421875 488.40625 420.367188 488.945312 420.371094 489.488281 C 420.375 490.035156 420.4375 490.570312 420.5625 491.101562 C 420.683594 491.632812 420.867188 492.144531 421.105469 492.632812 C 421.339844 493.125 421.628906 493.582031 421.96875 494.007812 C 422.308594 494.433594 422.691406 494.816406 423.117188 495.160156 C 423.542969 495.5 424 495.789062 424.492188 496.027344 C 424.980469 496.265625 425.492188 496.445312 426.023438 496.570312 C 428.246094 497.128906 430.503906 497.363281 432.792969 497.277344 Z M 544.363281 593.574219 L 588.0625 593.574219 C 588.40625 593.628906 588.75 593.660156 589.09375 593.675781 C 589.441406 593.691406 589.789062 593.6875 590.132812 593.664062 C 590.480469 593.640625 590.820312 593.597656 591.164062 593.535156 C 591.503906 593.472656 591.839844 593.390625 592.171875 593.292969 C 592.503906 593.191406 592.828125 593.074219 593.148438 592.9375 C 593.46875 592.800781 593.777344 592.648438 594.078125 592.476562 C 594.378906 592.304688 594.671875 592.117188 594.953125 591.914062 C 595.234375 591.710938 595.5 591.492188 595.757812 591.257812 C 596.011719 591.027344 596.253906 590.777344 596.484375 590.519531 C 596.710938 590.257812 596.925781 589.984375 597.125 589.699219 C 597.320312 589.417969 597.503906 589.121094 597.667969 588.816406 C 597.832031 588.511719 597.980469 588.199219 598.109375 587.878906 C 598.242188 587.554688 598.351562 587.230469 598.445312 586.894531 C 598.539062 586.5625 598.613281 586.222656 598.667969 585.878906 C 598.722656 585.539062 598.761719 585.195312 598.777344 584.847656 C 598.792969 584.503906 598.792969 584.15625 598.769531 583.808594 C 598.769531 579.085938 598.769531 574.28125 598.769531 569.558594 C 598.929688 566.539062 598.929688 563.523438 598.769531 560.503906 C 598.738281 559.886719 598.652344 559.277344 598.507812 558.675781 C 598.359375 558.074219 598.160156 557.492188 597.902344 556.929688 C 597.648438 556.367188 597.339844 555.835938 596.984375 555.328125 C 596.625 554.824219 596.222656 554.359375 595.777344 553.929688 C 595.332031 553.503906 594.847656 553.121094 594.328125 552.785156 C 593.8125 552.449219 593.265625 552.164062 592.691406 551.929688 C 592.117188 551.699219 591.527344 551.519531 590.921875 551.402344 C 590.316406 551.28125 589.703125 551.21875 589.085938 551.214844 C 587.5625 551.132812 586.039062 551.132812 584.519531 551.214844 L 538.535156 551.214844 C 526.570312 551.214844 514.914062 551.214844 502.710938 551.214844 C 502.289062 551.15625 501.863281 551.125 501.4375 551.117188 C 501.011719 551.109375 500.585938 551.125 500.160156 551.164062 C 499.734375 551.203125 499.3125 551.269531 498.894531 551.355469 C 498.476562 551.445312 498.066406 551.558594 497.664062 551.691406 C 497.257812 551.828125 496.863281 551.984375 496.472656 552.164062 C 496.085938 552.34375 495.710938 552.546875 495.347656 552.769531 C 494.984375 552.992188 494.632812 553.234375 494.296875 553.496094 C 493.960938 553.757812 493.640625 554.039062 493.335938 554.335938 C 493.03125 554.636719 492.742188 554.953125 492.476562 555.285156 C 492.207031 555.613281 491.957031 555.960938 491.726562 556.320312 C 491.5 556.679688 491.289062 557.050781 491.101562 557.433594 C 490.914062 557.820312 490.75 558.210938 490.609375 558.613281 C 490.464844 559.015625 490.347656 559.425781 490.25 559.839844 C 490.15625 560.257812 490.082031 560.675781 490.035156 561.101562 C 489.984375 561.523438 489.960938 561.949219 489.960938 562.378906 C 489.960938 562.804688 489.988281 563.230469 490.035156 563.652344 C 490.507812 569.636719 490.035156 575.699219 490.035156 581.761719 C 490.035156 590.425781 493.34375 593.730469 502.082031 593.808594 Z M 651.445312 563.652344 C 659.316406 563.652344 666.5625 563.652344 674.121094 563.652344 C 674.691406 563.703125 675.261719 563.6875 675.828125 563.609375 C 676.394531 563.535156 676.945312 563.398438 677.484375 563.203125 C 678.023438 563.003906 678.53125 562.753906 679.015625 562.445312 C 679.496094 562.136719 679.941406 561.78125 680.34375 561.375 C 680.75 560.96875 681.105469 560.527344 681.414062 560.042969 C 681.722656 559.5625 681.976562 559.050781 682.171875 558.515625 C 682.367188 557.976562 682.503906 557.425781 682.582031 556.855469 C 682.65625 556.289062 682.671875 555.71875 682.625 555.148438 C 682.625 551.371094 682.625 547.277344 682.625 543.734375 C 682.625 535.859375 679.476562 533.261719 672.074219 534.128906 C 658.765625 535.78125 645.382812 537.433594 632.152344 539.246094 C 620.972656 540.820312 619.871094 542.316406 620.027344 553.417969 C 620.027344 561.292969 622.863281 563.652344 630.421875 563.730469 Z M 437.359375 563.652344 L 441.925781 563.652344 C 447.988281 563.652344 454.050781 563.652344 460.117188 563.652344 C 460.710938 563.730469 461.304688 563.738281 461.898438 563.679688 C 462.496094 563.617188 463.074219 563.492188 463.644531 563.300781 C 464.210938 563.109375 464.746094 562.855469 465.257812 562.539062 C 465.765625 562.226562 466.234375 561.855469 466.65625 561.4375 C 467.082031 561.015625 467.457031 560.550781 467.773438 560.042969 C 468.09375 559.539062 468.351562 559.003906 468.550781 558.4375 C 468.746094 557.871094 468.878906 557.292969 468.941406 556.699219 C 469.007812 556.101562 469.003906 555.507812 468.933594 554.914062 C 468.933594 553.023438 468.933594 551.132812 468.933594 549.246094 C 468.933594 542.710938 466.730469 540.425781 460.351562 539.640625 C 452.476562 538.617188 444.605469 537.511719 436.730469 536.566406 C 428.855469 535.625 423.1875 534.757812 416.417969 534.128906 C 409.644531 533.496094 406.8125 536.332031 406.730469 542.789062 C 406.730469 546.566406 406.730469 550.347656 406.730469 554.125 C 406.730469 561.054688 409.332031 563.652344 416.339844 563.730469 Z M 437.359375 563.652344 " fill-opacity="1" fill-rule="nonzero"/></g><path fill="#dda210" d="M 254.457031 374.6875 L 254.457031 309.808594 C 255.710938 309.402344 257 309.140625 258.3125 309.019531 C 271.382812 309.019531 284.453125 308.546875 297.683594 309.019531 C 301.910156 308.980469 306.042969 309.59375 310.074219 310.859375 C 314.109375 312.125 317.851562 313.976562 321.304688 316.421875 C 321.839844 316.863281 322.363281 317.324219 322.871094 317.796875 C 323.375 318.273438 323.867188 318.765625 324.34375 319.273438 C 324.820312 319.777344 325.28125 320.300781 325.722656 320.835938 C 326.164062 321.375 326.589844 321.921875 326.996094 322.488281 C 327.402344 323.050781 327.792969 323.625 328.164062 324.214844 C 328.535156 324.804688 328.886719 325.402344 329.21875 326.015625 C 329.550781 326.625 329.863281 327.246094 330.152344 327.878906 C 330.445312 328.507812 330.71875 329.148438 330.96875 329.796875 C 331.222656 330.445312 331.449219 331.101562 331.660156 331.761719 C 331.871094 332.425781 332.058594 333.09375 332.226562 333.769531 C 332.390625 334.445312 332.535156 335.125 332.660156 335.808594 C 332.78125 336.496094 332.882812 337.183594 332.960938 337.871094 C 333.042969 338.5625 333.097656 339.257812 333.132812 339.949219 C 333.167969 340.644531 333.179688 341.339844 333.171875 342.035156 C 333.160156 342.730469 333.128906 343.425781 333.074219 344.117188 C 333.019531 344.8125 332.945312 345.503906 332.847656 346.191406 C 332.75 346.878906 332.628906 347.5625 332.484375 348.246094 C 332.34375 348.925781 332.179688 349.601562 331.996094 350.269531 C 331.808594 350.941406 331.601562 351.605469 331.375 352.261719 C 331.148438 352.917969 330.898438 353.566406 330.628906 354.207031 C 330.359375 354.851562 330.070312 355.480469 329.761719 356.105469 C 329.449219 356.726562 329.121094 357.339844 328.773438 357.941406 C 328.421875 358.542969 328.054688 359.132812 327.667969 359.710938 C 327.28125 360.285156 326.875 360.851562 326.453125 361.402344 C 326.03125 361.957031 325.589844 362.492188 325.132812 363.019531 C 324.675781 363.542969 324.203125 364.050781 323.714844 364.542969 C 323.222656 365.039062 322.71875 365.515625 322.199219 365.976562 C 321.675781 366.4375 321.140625 366.882812 320.59375 367.308594 C 320.042969 367.734375 319.484375 368.144531 318.90625 368.535156 C 318.332031 368.925781 317.746094 369.296875 317.148438 369.652344 C 316.546875 370.003906 315.9375 370.339844 315.320312 370.652344 C 314.699219 370.96875 314.070312 371.261719 313.429688 371.535156 C 307.175781 373.980469 300.695312 375.242188 293.980469 375.316406 C 280.992188 375.394531 267.921875 374.921875 254.457031 374.6875 Z M 254.457031 374.6875 " fill-opacity="1" fill-rule="nonzero"/></svg>