<svg xmlns="http://www.w3.org/2000/svg" xmlns:xlink="http://www.w3.org/1999/xlink" width="1080" zoomAndPan="magnify" viewBox="0 0 810 809.999993" height="1080" preserveAspectRatio="xMidYMid meet" version="1.0"><defs><g/><clipPath id="28d9d2dc93"><path d="M 405 0 C 181.324219 0 0 181.324219 0 405 C 0 628.675781 181.324219 810 405 810 C 628.675781 810 810 628.675781 810 405 C 810 181.324219 628.675781 0 405 0 Z M 405 0 " clip-rule="nonzero"/></clipPath><clipPath id="6d11acd363"><path d="M 183 118 L 627 118 L 627 562.351562 L 183 562.351562 Z M 183 118 " clip-rule="nonzero"/></clipPath></defs><g clip-path="url(#28d9d2dc93)"><rect x="-81" width="972" fill="#d9d9d9" y="-80.999999" height="971.999992" fill-opacity="1"/></g><g clip-path="url(#6d11acd363)"><path fill="#252525" d="M 622.382812 329.414062 L 572.726562 279.753906 L 558.308594 308.609375 L 589.925781 340.226562 L 495.074219 435.082031 L 460.855469 469.300781 L 546.902344 297.203125 L 561.320312 268.347656 L 625.25 140.503906 C 628.199219 134.605469 627.03125 127.5 622.382812 122.832031 C 617.734375 118.183594 610.628906 116.996094 604.710938 119.964844 L 491.285156 176.667969 L 514.097656 199.480469 L 577.332031 167.863281 L 545.714844 231.097656 L 538.507812 245.535156 L 527.101562 234.128906 L 511.085938 218.117188 L 465.460938 172.492188 L 415.824219 122.832031 C 409.84375 116.851562 400.15625 116.851562 394.175781 122.832031 L 344.539062 172.492188 L 298.914062 218.117188 L 282.898438 234.128906 L 271.492188 245.535156 L 264.285156 231.097656 L 232.648438 167.863281 L 295.882812 199.480469 L 318.695312 176.6875 L 205.265625 119.964844 C 199.371094 117.015625 192.265625 118.164062 187.59375 122.832031 C 182.945312 127.480469 181.777344 134.605469 184.726562 140.503906 L 248.660156 268.347656 L 263.078125 297.203125 L 349.125 469.300781 L 220.050781 340.226562 L 251.671875 308.609375 L 237.253906 279.753906 L 187.617188 329.414062 C 181.636719 335.394531 181.636719 345.082031 187.617188 351.058594 L 358.199219 521.640625 L 394.175781 557.621094 C 394.996094 558.441406 395.878906 559.117188 396.820312 559.710938 C 397.023438 559.832031 397.25 559.914062 397.453125 560.039062 C 398.355469 560.550781 399.296875 560.960938 400.300781 561.289062 C 400.628906 561.390625 400.933594 561.492188 401.261719 561.574219 C 402.472656 561.882812 403.71875 562.105469 405.011719 562.105469 C 406.300781 562.105469 407.550781 561.882812 408.757812 561.574219 C 409.085938 561.492188 409.390625 561.390625 409.71875 561.289062 C 410.703125 560.960938 411.664062 560.550781 412.566406 560.039062 C 412.769531 559.914062 412.996094 559.832031 413.203125 559.710938 C 414.121094 559.117188 415.023438 558.441406 415.84375 557.621094 L 622.40625 351.058594 C 628.363281 345.082031 628.363281 335.375 622.382812 329.414062 Z M 405.011719 512.589844 L 293.117188 288.828125 L 285.910156 274.390625 L 405.011719 155.289062 L 512.703125 262.984375 L 524.109375 274.390625 L 516.902344 288.804688 Z M 405.011719 512.589844 " fill-opacity="1" fill-rule="nonzero"/></g><g fill="#800000" fill-opacity="1"><g transform="translate(139.675779, 671.185762)"><g><path d="M 87.578125 -68.8125 L 76.828125 -39.84375 L 60.171875 -83.6875 C 59.96875 -84.109375 59.546875 -84.3125 59.125 -84.3125 L 44.796875 -84.3125 C 44.375 -84.3125 43.953125 -84.109375 43.84375 -83.6875 L 27.078125 -39.84375 L 16.4375 -68.8125 L 0 -68.8125 L 26.140625 -0.625 C 26.453125 0.203125 27.828125 0.203125 28.140625 -0.625 L 51.953125 -63.125 L 75.78125 -0.625 C 76.09375 0.203125 77.46875 0.203125 77.78125 -0.625 L 104.015625 -68.8125 Z M 87.578125 -68.8125 "/></g></g></g><g fill="#800000" fill-opacity="1"><g transform="translate(248.856369, 671.185762)"><g><path d="M 34.359375 -14.4375 L 25.921875 -14.4375 L 25.921875 -84.3125 L 9.796875 -84.3125 L 9.796875 -14.4375 L 1.15625 -14.4375 C 0.53125 -14.4375 0 -14.015625 0 -13.484375 L 0 -0.953125 C 0 -0.53125 0.53125 0 1.15625 0 L 34.359375 0 C 35.09375 0 35.515625 -0.53125 35.515625 -0.953125 L 35.515625 -13.484375 C 35.515625 -14.015625 35.09375 -14.4375 34.359375 -14.4375 Z M 34.359375 -14.4375 "/></g></g></g><g fill="#800000" fill-opacity="1"><g transform="translate(286.163248, 671.185762)"><g><path d="M 45.53125 -15.703125 L 0 -15.703125 L 0 -0.953125 C 0 -0.53125 0.53125 0 1.15625 0 L 45.53125 0 C 46.265625 0 46.6875 -0.53125 46.6875 -0.953125 L 46.6875 -14.65625 C 46.6875 -15.171875 46.265625 -15.703125 45.53125 -15.703125 Z M 16.125 -31.828125 L 16.125 -83.359375 C 16.125 -83.78125 15.703125 -84.3125 15.078125 -84.3125 L 1.15625 -84.3125 C 0.53125 -84.3125 0 -83.78125 0 -83.359375 L 0 -31.828125 Z M 16.125 -31.828125 "/></g></g></g><g fill="#800000" fill-opacity="1"><g transform="translate(335.273425, 671.185762)"><g><path d="M 14.96875 -84.3125 L 1.15625 -84.3125 C 0.53125 -84.3125 0 -83.78125 0 -83.359375 L 0 -50.265625 L 16.125 -50.265625 L 16.125 -68.921875 C 34.46875 -69.875 48.0625 -62.1875 48.0625 -42.15625 C 48.0625 -16.125 26.34375 -15.078125 16.125 -15.5 L 16.125 -34.046875 L 0 -34.046875 L 0 -0.953125 C 0 -0.53125 0.53125 0 1.15625 0 L 14.96875 0 C 35.9375 0 64.28125 -6.109375 64.28125 -42.15625 C 64.28125 -79.5625 35.515625 -84.3125 14.96875 -84.3125 Z M 14.96875 -84.3125 "/></g></g></g><g fill="#000000" fill-opacity="1"><g transform="translate(402.832016, 671.185762)"><g/></g></g><g fill="#303030" fill-opacity="1"><g transform="translate(429.187487, 671.185762)"><g><path d="M 17.390625 -53.75 L 17.390625 -0.953125 C 17.390625 -0.53125 17.8125 0 18.546875 0 L 32.140625 0 C 32.875 0 33.40625 -0.53125 33.40625 -0.953125 L 33.40625 -53.75 Z M 1.15625 -69.875 L 49.53125 -69.875 C 50.265625 -69.875 50.6875 -70.296875 50.6875 -70.828125 L 50.6875 -83.359375 C 50.6875 -83.78125 50.265625 -84.3125 49.53125 -84.3125 L 1.15625 -84.3125 C 0.53125 -84.3125 0 -83.78125 0 -83.359375 L 0 -70.828125 C 0 -70.296875 0.53125 -69.875 1.15625 -69.875 Z M 1.15625 -69.875 "/></g></g></g><g fill="#303030" fill-opacity="1"><g transform="translate(482.407753, 671.185762)"><g><path d="M 40.046875 -15.703125 L 16.125 -15.703125 L 16.125 -34.671875 L 49.21875 -34.671875 C 49.84375 -34.671875 50.375 -35.203125 50.375 -35.625 L 50.375 -49 C 50.375 -49.53125 49.84375 -49.953125 49.21875 -49.953125 L 16.125 -49.953125 L 16.125 -69.03125 L 40.046875 -69.03125 L 40.046875 -84.3125 L 1.15625 -84.3125 C 0.53125 -84.3125 0 -83.78125 0 -83.359375 L 0 -0.953125 C 0 -0.53125 0.53125 0 1.15625 0 L 40.046875 0 Z M 40.046875 -15.703125 "/></g></g></g><g fill="#303030" fill-opacity="1"><g transform="translate(535.311863, 671.185762)"><g><path d="M 48.15625 -15.5 C 37.9375 -15.078125 16.234375 -16.125 16.234375 -42.15625 C 16.234375 -62.1875 29.828125 -69.875 48.15625 -68.921875 L 48.15625 -50.265625 L 64.28125 -50.265625 L 64.28125 -83.359375 C 64.28125 -83.78125 63.859375 -84.3125 63.125 -84.3125 L 49.421875 -84.3125 C 28.765625 -84.3125 0 -79.5625 0 -42.15625 C 0 -6.109375 28.453125 0 49.421875 0 L 63.125 0 C 63.859375 0 64.28125 -0.53125 64.28125 -0.953125 L 64.28125 -15.5 Z M 48.15625 -15.5 "/></g></g></g><g fill="#303030" fill-opacity="1"><g transform="translate(602.86472, 671.185762)"><g><path d="M 16.125 -47.734375 L 16.125 -83.359375 C 16.125 -83.78125 15.703125 -84.3125 14.96875 -84.3125 L 1.15625 -84.3125 C 0.53125 -84.3125 0 -83.78125 0 -83.359375 L 0 -47.734375 Z M 63.03125 -84.3125 L 49.21875 -84.3125 C 48.578125 -84.3125 48.0625 -83.78125 48.0625 -83.359375 L 48.0625 -31.515625 L 16.125 -31.515625 L 16.125 -31.609375 L 0 -31.609375 L 0 -0.953125 C 0 -0.53125 0.53125 0 1.15625 0 L 14.96875 0 C 15.703125 0 16.125 -0.53125 16.125 -0.953125 L 16.125 -15.8125 L 48.0625 -15.8125 L 48.0625 -0.953125 C 48.0625 -0.53125 48.578125 0 49.21875 0 L 63.03125 0 C 63.765625 0 64.1875 -0.53125 64.1875 -0.953125 L 64.1875 -83.359375 C 64.1875 -83.78125 63.765625 -84.3125 63.03125 -84.3125 Z M 63.03125 -84.3125 "/></g></g></g></svg>