<svg xmlns="http://www.w3.org/2000/svg" xmlns:xlink="http://www.w3.org/1999/xlink" width="1080" zoomAndPan="magnify" viewBox="0 0 810 809.999993" height="1080" preserveAspectRatio="xMidYMid meet" version="1.0"><defs><clipPath id="d0b0df1261"><path d="M 405 0 C 181.324219 0 0 181.324219 0 405 C 0 628.675781 181.324219 810 405 810 C 628.675781 810 810 628.675781 810 405 C 810 181.324219 628.675781 0 405 0 Z M 405 0 " clip-rule="nonzero"/></clipPath><clipPath id="1eca9f586b"><path d="M 116 242 L 595 242 L 595 620.214844 L 116 620.214844 Z M 116 242 " clip-rule="nonzero"/></clipPath><clipPath id="0dc83f0e97"><path d="M 258 189.714844 L 307 189.714844 L 307 293 L 258 293 Z M 258 189.714844 " clip-rule="nonzero"/></clipPath><clipPath id="d6ed726708"><path d="M 400 327 L 693 327 L 693 620.214844 L 400 620.214844 Z M 400 327 " clip-rule="nonzero"/></clipPath><clipPath id="a0a9f4f879"><path d="M 401 189.714844 L 450 189.714844 L 450 293 L 401 293 Z M 401 189.714844 " clip-rule="nonzero"/></clipPath></defs><g clip-path="url(#d0b0df1261)"><rect x="-81" width="972" fill="#d9d9d9" y="-80.999999" height="971.999992" fill-opacity="1"/></g><g clip-path="url(#1eca9f586b)"><path fill="#ff0000" d="M 282.757812 479.167969 L 301.742188 479.167969 C 312.101562 479.167969 320.441406 487.515625 320.441406 497.875 L 320.441406 518.347656 C 320.441406 528.753906 312.101562 537.09375 301.742188 537.09375 L 282.757812 537.09375 C 272.359375 537.09375 264.019531 528.753906 264.019531 518.347656 L 264.019531 497.875 C 264.019531 487.515625 272.359375 479.167969 282.757812 479.167969 Z M 185.210938 479.167969 L 204.191406 479.167969 C 214.558594 479.167969 222.9375 487.515625 222.9375 497.875 L 222.9375 518.347656 C 222.9375 528.753906 214.558594 537.09375 204.191406 537.09375 L 185.210938 537.09375 C 174.851562 537.09375 166.515625 528.753906 166.515625 518.347656 L 166.515625 497.875 C 166.507812 487.515625 174.851562 479.167969 185.210938 479.167969 Z M 282.757812 380.644531 L 301.742188 380.644531 C 312.101562 380.644531 320.441406 388.984375 320.441406 399.34375 L 320.441406 419.863281 C 320.441406 430.222656 312.101562 438.609375 301.742188 438.609375 L 282.757812 438.609375 C 272.359375 438.609375 264.019531 430.222656 264.019531 419.863281 L 264.019531 399.34375 C 264.019531 388.984375 272.359375 380.644531 282.757812 380.644531 Z M 185.210938 380.644531 L 204.191406 380.644531 C 214.558594 380.644531 222.9375 388.984375 222.9375 399.34375 L 222.9375 419.863281 C 222.9375 430.222656 214.558594 438.609375 204.191406 438.609375 L 185.210938 438.609375 C 174.851562 438.609375 166.515625 430.222656 166.515625 419.863281 L 166.515625 399.34375 C 166.507812 388.984375 174.851562 380.644531 185.210938 380.644531 Z M 161.285156 242.851562 C 136.632812 242.851562 116.757812 262.722656 116.757812 287.421875 L 116.757812 575.671875 C 116.757812 600.355469 136.714844 618.292969 161.285156 620.226562 L 455.601562 620.226562 C 404.921875 588.78125 374.035156 533.402344 373.953125 473.789062 C 373.953125 428.007812 392.128906 384.128906 424.515625 351.742188 C 456.851562 319.355469 500.78125 301.1875 546.554688 301.1875 C 562.828125 301.226562 579.058594 303.582031 594.679688 308.1875 L 594.679688 287.421875 C 594.679688 262.722656 574.84375 242.851562 550.152344 242.851562 L 469.730469 242.851562 L 469.730469 268.964844 C 469.730469 292.769531 449.9375 312.480469 425.285156 312.480469 C 400.632812 312.480469 380.796875 292.769531 380.796875 268.964844 L 380.796875 242.851562 L 326.917969 242.851562 L 326.917969 268.964844 C 326.917969 292.769531 307.121094 312.480469 282.46875 312.480469 C 257.816406 312.480469 237.984375 292.769531 237.984375 268.964844 L 237.984375 242.851562 Z M 161.285156 242.851562 " fill-opacity="1" fill-rule="evenodd"/></g><g clip-path="url(#0dc83f0e97)"><path fill="#ff0000" d="M 282.476562 189.707031 C 296.203125 189.707031 306.484375 200.035156 306.484375 212.78125 L 306.484375 268.964844 C 306.484375 281.757812 296.203125 292.03125 282.476562 292.03125 C 268.753906 292.03125 258.429688 281.757812 258.429688 268.964844 L 258.429688 212.78125 C 258.429688 200.035156 268.761719 189.707031 282.476562 189.707031 Z M 282.476562 189.707031 " fill-opacity="1" fill-rule="evenodd"/></g><g clip-path="url(#d6ed726708)"><path fill="#ff0000" d="M 546.5625 363.570312 C 575.746094 363.570312 603.71875 375.183594 624.359375 395.863281 C 645 416.503906 656.582031 444.5625 656.582031 473.789062 C 656.582031 503.011719 645 531.0625 624.359375 551.703125 C 603.71875 572.382812 575.746094 584.003906 546.5625 584.003906 C 485.804688 584.003906 436.546875 534.660156 436.546875 473.78125 C 436.539062 412.914062 485.796875 363.570312 546.5625 363.570312 Z M 546.5625 327.339844 C 465.804688 327.339844 400.351562 392.917969 400.351562 473.789062 C 400.351562 554.65625 465.804688 620.226562 546.5625 620.226562 C 585.335938 620.226562 622.5 604.808594 649.945312 577.328125 C 677.347656 549.875 692.773438 512.601562 692.773438 473.78125 C 692.773438 434.957031 677.355469 397.679688 649.945312 370.230469 C 622.492188 342.757812 585.335938 327.339844 546.5625 327.339844 Z M 546.5625 327.339844 " fill-opacity="1" fill-rule="evenodd"/></g><path fill="#ff0000" d="M 544.898438 378.011719 C 541.136719 378.058594 538.101562 381.175781 538.140625 384.9375 L 538.140625 393.234375 C 538.101562 397.035156 541.175781 400.160156 544.984375 400.160156 C 548.785156 400.160156 551.863281 397.042969 551.863281 393.234375 L 551.863281 384.9375 C 551.902344 381.089844 548.746094 377.964844 544.898438 378.011719 Z M 544.898438 378.011719 " fill-opacity="1" fill-rule="nonzero"/><path fill="#ff0000" d="M 544.898438 547.375 C 541.101562 547.414062 538.0625 550.539062 538.140625 554.339844 L 538.140625 562.636719 C 538.101562 566.4375 541.175781 569.5625 544.984375 569.5625 C 548.785156 569.5625 551.863281 566.4375 551.863281 562.636719 L 551.863281 554.339844 C 551.902344 550.453125 548.746094 547.296875 544.898438 547.375 Z M 544.898438 547.375 " fill-opacity="1" fill-rule="nonzero"/><path fill="#ff0000" d="M 624.714844 466.9375 C 616.019531 467.753906 616.664062 480.667969 625.410156 480.628906 L 633.667969 480.628906 C 637.640625 480.910156 640.992188 477.746094 640.992188 473.789062 C 640.992188 469.820312 637.632812 466.703125 633.667969 466.9375 L 625.410156 466.9375 C 625.167969 466.9375 624.964844 466.9375 624.714844 466.9375 Z M 624.714844 466.9375 " fill-opacity="1" fill-rule="nonzero"/><path fill="#ff0000" d="M 455.609375 466.9375 C 446.90625 467.753906 447.550781 480.667969 456.292969 480.628906 L 464.59375 480.628906 C 468.519531 480.910156 471.882812 477.746094 471.882812 473.789062 C 471.882812 469.820312 468.519531 466.703125 464.59375 466.9375 L 456.292969 466.9375 C 456.089844 466.9375 455.851562 466.9375 455.609375 466.9375 Z M 455.609375 466.9375 " fill-opacity="1" fill-rule="nonzero"/><path fill="#ff0000" d="M 601.8125 523.824219 C 595.617188 523.742188 592.542969 531.261719 596.996094 535.59375 L 602.863281 541.46875 C 605.496094 544.335938 609.988281 544.421875 612.742188 541.664062 C 615.492188 538.917969 615.414062 534.417969 612.539062 531.792969 L 606.710938 525.878906 C 605.410156 524.539062 603.632812 523.824219 601.8125 523.824219 Z M 601.8125 523.824219 " fill-opacity="1" fill-rule="nonzero"/><path fill="#ff0000" d="M 481.511719 404.039062 C 475.722656 404.652344 473.25 411.726562 477.425781 415.78125 L 483.253906 421.6875 C 485.925781 424.523438 490.382812 424.601562 493.132812 421.851562 C 495.882812 419.101562 495.804688 414.648438 492.96875 411.972656 L 487.101562 406.097656 C 485.640625 404.613281 483.613281 403.84375 481.511719 404.039062 Z M 481.511719 404.039062 " fill-opacity="1" fill-rule="nonzero"/><path fill="#ff0000" d="M 607.554688 404.039062 C 605.777344 404.125 604.121094 404.847656 602.863281 406.105469 L 596.996094 411.980469 C 594.28125 414.6875 594.28125 419.0625 596.957031 421.726562 C 599.667969 424.402344 604.035156 424.402344 606.710938 421.6875 L 612.539062 415.78125 C 616.992188 411.40625 613.75 403.875 607.554688 404.039062 Z M 607.554688 404.039062 " fill-opacity="1" fill-rule="nonzero"/><path fill="#ff0000" d="M 487.988281 523.824219 C 486.207031 523.863281 484.511719 524.632812 483.253906 525.886719 L 477.425781 531.800781 C 474.597656 534.425781 474.511719 538.925781 477.261719 541.667969 C 479.972656 544.429688 484.464844 544.34375 487.101562 541.476562 L 492.96875 535.601562 C 497.453125 531.230469 494.257812 523.617188 487.988281 523.824219 Z M 487.988281 523.824219 " fill-opacity="1" fill-rule="nonzero"/><path fill="#ff0000" d="M 544.863281 409.542969 C 541.054688 409.585938 538.015625 412.742188 538.0625 416.503906 L 538.140625 473.820312 C 538.140625 477.589844 541.214844 480.628906 544.984375 480.628906 L 585.257812 480.628906 C 594.414062 480.628906 594.414062 466.898438 585.257812 466.898438 L 551.863281 466.9375 L 551.824219 416.503906 C 551.855469 412.664062 548.699219 409.503906 544.863281 409.542969 Z M 544.863281 409.542969 " fill-opacity="1" fill-rule="nonzero"/><g clip-path="url(#a0a9f4f879)"><path fill="#ff0000" d="M 425.285156 189.707031 C 439.007812 189.707031 449.292969 200.035156 449.292969 212.78125 L 449.292969 268.964844 C 449.292969 281.757812 439.007812 292.03125 425.285156 292.03125 C 411.558594 292.03125 401.238281 281.757812 401.238281 268.964844 L 401.238281 212.78125 C 401.238281 200.035156 411.566406 189.707031 425.285156 189.707031 Z M 425.285156 189.707031 " fill-opacity="1" fill-rule="evenodd"/></g></svg>